<!-- icon666.com - MILLIONS vector ICONS FREE --><svg id="_1" viewBox="0 0 512 512" xmlns="http://www.w3.org/2000/svg" data-name="1"><path d="m370.208 337.576h32.631v32.631h-32.631z" transform="matrix(-1 0 0 -1 773.046 707.783)" fill="#000000" style="fill: rgb(255, 250, 250);"></path><path d="m402.838 239.685h32.631v32.631h-32.631z" transform="matrix(-1 0 0 -1 838.307 512)" fill="#000000" style="fill: rgb(255, 250, 250);"></path><path d="m239.684 239.685h32.631v32.631h-32.631z" transform="matrix(-1 0 0 -1 511.999 512)" fill="#000000" style="fill: rgb(255, 250, 250);"></path><path d="m402.838 272.315h32.631v32.631h-32.631z" transform="matrix(-1 0 0 -1 838.307 577.261)" fill="#000000" style="fill: rgb(255, 250, 250);"></path><path d="m402.838 207.054h32.631v32.631h-32.631z" transform="matrix(-1 0 0 -1 838.307 446.739)" fill="#000000" style="fill: rgb(255, 250, 250);"></path><path d="m337.577 239.685h32.631v32.631h-32.631z" transform="matrix(-1 0 0 -1 707.785 512)" fill="#000000" style="fill: rgb(255, 250, 250);"></path><path d="m304.947 272.315h32.631v32.631h-32.631z" transform="matrix(-1 0 0 -1 642.524 577.261)" fill="#000000" style="fill: rgb(255, 250, 250);"></path><path d="m304.947 304.946h32.631v32.631h-32.631z" transform="matrix(-1 0 0 -1 642.524 642.522)" fill="#000000" style="fill: rgb(255, 250, 250);"></path><path d="m304.947 207.054h32.631v32.631h-32.631z" transform="matrix(-1 0 0 -1 642.524 446.739)" fill="#000000" style="fill: rgb(255, 250, 250);"></path><path d="m304.947 174.424h32.631v32.631h-32.631z" transform="matrix(-1 0 0 -1 642.524 381.478)" fill="#000000" style="fill: rgb(255, 250, 250);"></path><path d="m239.684 272.315h32.631v32.631h-32.631z" transform="matrix(-1 0 0 -1 511.999 577.261)" fill="#000000" style="fill: rgb(255, 250, 250);"></path><path d="m239.684 304.946h32.631v32.631h-32.631z" transform="matrix(-1 0 0 -1 511.999 642.522)" fill="#000000" style="fill: rgb(255, 250, 250);"></path><path d="m239.684 337.576h32.631v32.631h-32.631z" transform="matrix(-1 0 0 -1 511.999 707.783)" fill="#000000" style="fill: rgb(255, 250, 250);"></path><path d="m239.684 207.054h32.631v32.631h-32.631z" transform="matrix(-1 0 0 -1 511.999 446.739)" fill="#000000" style="fill: rgb(255, 250, 250);"></path><path d="m239.684 174.424h32.631v32.631h-32.631z" transform="matrix(-1 0 0 -1 511.999 381.478)" fill="#000000" style="fill: rgb(255, 250, 250);"></path><path d="m239.684 141.793h32.631v32.631h-32.631z" transform="matrix(-1 0 0 -1 511.999 316.217)" fill="#000000" style="fill: rgb(255, 250, 250);"></path><path d="m109.162 207.054h32.631v32.631h-32.631z" transform="matrix(-1 0 0 -1 250.954 446.739)" fill="#000000" style="fill: rgb(255, 250, 250);"></path><path d="m141.792 207.054h32.631v32.631h-32.631z" transform="matrix(-1 0 0 -1 316.215 446.739)" fill="#000000" style="fill: rgb(255, 250, 250);"></path><path d="m174.423 174.424h32.631v32.631h-32.631z" transform="matrix(-1 0 0 -1 381.476 381.478)" fill="#000000" style="fill: rgb(255, 250, 250);"></path><path d="m207.053 337.576h32.631v32.631h-32.631z" fill="#000000" style="fill: rgb(255, 250, 250);"></path><path d="m174.423 304.946h32.631v32.631h-32.631z" fill="#000000" style="fill: rgb(255, 250, 250);"></path><path d="m141.792 272.315h32.631v32.631h-32.631z" fill="#000000" style="fill: rgb(255, 250, 250);"></path><path d="m109.162 272.315h32.631v32.631h-32.631z" fill="#000000" style="fill: rgb(255, 250, 250);"></path><path d="m76.531 207.054h32.631v32.631h-32.631z" transform="matrix(-1 0 0 -1 185.693 446.739)" fill="#000000" style="fill: rgb(255, 250, 250);"></path><path d="m76.531 272.315h32.631v32.631h-32.631z" fill="#000000" style="fill: rgb(255, 250, 250);"></path><path d="m76.531 239.685h32.631v32.631h-32.631z" fill="#000000" style="fill: rgb(255, 250, 250);"></path><path d="m337.577 370.207h32.631v32.631h-32.631z" fill="#000000" style="fill: rgb(255, 250, 250);"></path><path d="m337.577 402.838h32.631v32.631h-32.631z" fill="#000000" style="fill: rgb(255, 250, 250);"></path><path d="m370.208 141.793h32.631v32.631h-32.631z" transform="matrix(-1 0 0 -1 773.046 316.217)" fill="#000000" style="fill: rgb(255, 250, 250);"></path><path d="m337.577 109.162h32.631v32.631h-32.631z" fill="#000000" style="fill: rgb(255, 250, 250);"></path><path d="m337.577 76.532h32.631v32.631h-32.631z" fill="#000000" style="fill: rgb(255, 250, 250);"></path><path d="m370.208 304.946h32.631v32.631h-32.631z" transform="matrix(-1 0 0 -1 773.046 642.522)" fill="#000000" style="fill: rgb(255, 250, 250);"></path><path d="m370.208 174.424h32.631v32.631h-32.631z" transform="matrix(-1 0 0 -1 773.046 381.478)" fill="#000000" style="fill: rgb(255, 250, 250);"></path><path d="m207.053 141.793h32.631v32.631h-32.631z" transform="matrix(-1 0 0 -1 446.737 316.217)" fill="#000000" style="fill: rgb(255, 250, 250);"></path><path d="m239.685 370.207h32.631v32.631h-32.631z" fill="#000000" style="fill: rgb(255, 250, 250);"></path><path d="m239.685 109.162h32.631v32.631h-32.631z" transform="matrix(-1 0 0 -1 512.001 250.956)" fill="#000000" style="fill: rgb(255, 250, 250);"></path></svg>