<!-- icon666.com - MILLIONS vector ICONS FREE --><svg id="_1" viewBox="0 0 512 512" xmlns="http://www.w3.org/2000/svg" data-name="1"><path d="m370.251 370.207h32.631v32.631h-32.631z" transform="matrix(-1 0 0 -1 773.133 773.044)" fill="#000000" style="fill: rgb(255, 255, 255);"></path><path d="m402.882 402.838h32.631v32.631h-32.631z" transform="matrix(-1 0 0 -1 838.394 838.306)" fill="#000000" style="fill: rgb(255, 255, 255);"></path><path d="m337.62 370.207h32.631v32.631h-32.631z" fill="#000000" style="fill: rgb(255, 255, 255);"></path><path d="m206.996 239.685h32.631v32.631h-32.631z" transform="matrix(-1 0 0 -1 446.622 512)" fill="#000000" style="fill: rgb(255, 255, 255);"></path><path d="m141.763 174.424h32.631v32.631h-32.631z" transform="matrix(-1 0 0 -1 316.157 381.478)" fill="#000000" style="fill: rgb(255, 255, 255);"></path><path d="m174.365 207.054h32.631v32.631h-32.631z" transform="matrix(-1 0 0 -1 381.361 446.739)" fill="#000000" style="fill: rgb(255, 255, 255);"></path><path d="m109.133 141.793h32.631v32.631h-32.631z" transform="matrix(-1 0 0 -1 250.896 316.217)" fill="#000000" style="fill: rgb(255, 255, 255);"></path><path d="m239.612 239.685h32.631v32.631h-32.631z" transform="matrix(-1 0 0 -1 511.854 512)" fill="#000000" style="fill: rgb(255, 255, 255);"></path><path d="m239.612 272.315h32.631v32.631h-32.631z" transform="matrix(-1 0 0 -1 511.854 577.261)" fill="#000000" style="fill: rgb(255, 255, 255);"></path><path d="m272.301 272.315h32.631v32.631h-32.631z" transform="matrix(-1 0 0 -1 577.232 577.261)" fill="#000000" style="fill: rgb(255, 255, 255);"></path><path d="m272.359 304.946h32.631v32.631h-32.631z" transform="matrix(-1 0 0 -1 577.349 642.522)" fill="#000000" style="fill: rgb(255, 255, 255);"></path><path d="m304.99 304.946h32.631v32.631h-32.631z" transform="matrix(-1 0 0 -1 642.61 642.522)" fill="#000000" style="fill: rgb(255, 255, 255);"></path><path d="m337.62 337.576h32.631v32.631h-32.631z" transform="matrix(-1 0 0 -1 707.872 707.783)" fill="#000000" style="fill: rgb(255, 255, 255);"></path><path d="m304.99 337.576h32.631v32.631h-32.631z" transform="matrix(-1 0 0 -1 642.61 707.783)" fill="#000000" style="fill: rgb(255, 255, 255);"></path><path d="m174.38 174.424h32.631v32.631h-32.631z" transform="matrix(-1 0 0 -1 381.39 381.478)" fill="#000000" style="fill: rgb(255, 255, 255);"></path><path d="m206.981 207.054h32.631v32.631h-32.631z" transform="matrix(-1 0 0 -1 446.593 446.739)" fill="#000000" style="fill: rgb(255, 255, 255);"></path><path d="m141.749 141.793h32.631v32.631h-32.631z" transform="matrix(-1 0 0 -1 316.128 316.217)" fill="#000000" style="fill: rgb(255, 255, 255);"></path><path d="m76.488 109.162h32.631v32.631h-32.631z" transform="matrix(-1 0 0 -1 185.606 250.956)" fill="#000000" style="fill: rgb(255, 255, 255);"></path><path d="m402.838 239.685h32.631v32.631h-32.631z" transform="matrix(-1 0 0 -1 838.307 512)" fill="#000000" style="fill: rgb(255, 255, 255);"></path><path d="m402.838 272.315h32.631v32.631h-32.631z" transform="matrix(-1 0 0 -1 838.307 577.261)" fill="#000000" style="fill: rgb(255, 255, 255);"></path><path d="m402.838 207.054h32.631v32.631h-32.631z" transform="matrix(-1 0 0 -1 838.307 446.739)" fill="#000000" style="fill: rgb(255, 255, 255);"></path><path d="m337.577 239.685h32.631v32.631h-32.631z" transform="matrix(-1 0 0 -1 707.785 512)" fill="#000000" style="fill: rgb(255, 255, 255);"></path><path d="m304.947 207.054h32.631v32.631h-32.631z" transform="matrix(-1 0 0 -1 642.524 446.739)" fill="#000000" style="fill: rgb(255, 255, 255);"></path><path d="m304.947 174.424h32.631v32.631h-32.631z" transform="matrix(-1 0 0 -1 642.524 381.478)" fill="#000000" style="fill: rgb(255, 255, 255);"></path><path d="m239.684 337.576h32.631v32.631h-32.631z" transform="matrix(-1 0 0 -1 511.999 707.783)" fill="#000000" style="fill: rgb(255, 255, 255);"></path><path d="m239.684 304.946h32.631v32.631h-32.631z" transform="matrix(-1 0 0 -1 511.999 642.522)" fill="#000000" style="fill: rgb(255, 255, 255);"></path><path d="m239.684 174.424h32.631v32.631h-32.631z" transform="matrix(-1 0 0 -1 511.999 381.478)" fill="#000000" style="fill: rgb(255, 255, 255);"></path><path d="m239.684 141.793h32.631v32.631h-32.631z" transform="matrix(-1 0 0 -1 511.999 316.217)" fill="#000000" style="fill: rgb(255, 255, 255);"></path><path d="m109.162 207.054h32.631v32.631h-32.631z" transform="matrix(-1 0 0 -1 250.954 446.739)" fill="#000000" style="fill: rgb(255, 255, 255);"></path><path d="m207.053 337.576h32.631v32.631h-32.631z" fill="#000000" style="fill: rgb(255, 255, 255);"></path><path d="m174.423 304.946h32.631v32.631h-32.631z" fill="#000000" style="fill: rgb(255, 255, 255);"></path><path d="m141.792 272.315h32.631v32.631h-32.631z" fill="#000000" style="fill: rgb(255, 255, 255);"></path><path d="m109.162 272.315h32.631v32.631h-32.631z" fill="#000000" style="fill: rgb(255, 255, 255);"></path><path d="m76.531 207.054h32.631v32.631h-32.631z" transform="matrix(-1 0 0 -1 185.693 446.739)" fill="#000000" style="fill: rgb(255, 255, 255);"></path><path d="m76.531 272.315h32.631v32.631h-32.631z" fill="#000000" style="fill: rgb(255, 255, 255);"></path><path d="m76.531 239.685h32.631v32.631h-32.631z" fill="#000000" style="fill: rgb(255, 255, 255);"></path><path d="m370.208 141.793h32.631v32.631h-32.631z" transform="matrix(-1 0 0 -1 773.046 316.217)" fill="#000000" style="fill: rgb(255, 255, 255);"></path><path d="m337.577 109.162h32.631v32.631h-32.631z" fill="#000000" style="fill: rgb(255, 255, 255);"></path><path d="m337.577 76.532h32.631v32.631h-32.631z" fill="#000000" style="fill: rgb(255, 255, 255);"></path><path d="m370.208 304.946h32.631v32.631h-32.631z" transform="matrix(-1 0 0 -1 773.046 642.522)" fill="#000000" style="fill: rgb(255, 255, 255);"></path><path d="m370.208 174.424h32.631v32.631h-32.631z" transform="matrix(-1 0 0 -1 773.046 381.478)" fill="#000000" style="fill: rgb(255, 255, 255);"></path><path d="m207.053 141.793h32.631v32.631h-32.631z" transform="matrix(-1 0 0 -1 446.737 316.217)" fill="#000000" style="fill: rgb(255, 255, 255);"></path><path d="m239.685 370.207h32.631v32.631h-32.631z" fill="#000000" style="fill: rgb(255, 255, 255);"></path><path d="m239.685 109.162h32.631v32.631h-32.631z" transform="matrix(-1 0 0 -1 512.001 250.956)" fill="#000000" style="fill: rgb(255, 255, 255);"></path></svg>